{
  "accessors": [
    {
      "bufferView": 2,
      "componentType": 5126,
      "count": 97,
      "max": [
        23.14313316345215,
        57.416343688964844,
        35.50374221801758
      ],
      "min": [
        -26.867883682250977,
        -113.84718322753906,
        20.928611755371094
      ],
      "type": "VEC3"
    },
    {
      "bufferView": 2,
      "byteOffset": 1164,
      "componentType": 5126,
      "count": 97,
      "max": [
        0.9999917149543762,
        0.973724901676178,
        0.9948949217796326
      ],
      "min": [
        -1.0,
        -0.9562652111053467,
        -0.9948960542678833
      ],
      "type": "VEC3"
    },
    {
      "bufferView": 1,
      "componentType": 5126,
      "count": 97,
      "max": [
        0.2662400007247925,
        0.7749199867248535
      ],
      "min": [
        0.006519999820739031,
        0.006459999829530716
      ],
      "type": "VEC2"
    },
    {
      "bufferView": 0,
      "componentType": 5125,
      "count": 159,
      "type": "SCALAR"
    },
    {
      "bufferView": 2,
      "byteOffset": 2328,
      "componentType": 5126,
      "count": 49295,
      "max": [
        35.000030517578125,
        64.59909057617188,
        49.47435760498047
      ],
      "min": [
        -35.0,
        -115.50700378417969,
        -1.434414029121399
      ],
      "type": "VEC3"
    },
    {
      "bufferView": 2,
      "byteOffset": 593868,
      "componentType": 5126,
      "count": 49295,
      "max": [
        1.0,
        1.0,
        1.0
      ],
      "min": [
        -1.0,
        -1.0,
        -1.0
      ],
      "type": "VEC3"
    },
    {
      "bufferView": 1,
      "byteOffset": 776,
      "componentType": 5126,
      "count": 49295,
      "max": [
        0.9913700222969055,
        1.0100699663162231
      ],
      "min": [
        0.0012400000123307109,
        0.0010499999625608325
      ],
      "type": "VEC2"
    },
    {
      "bufferView": 0,
      "byteOffset": 636,
      "componentType": 5125,
      "count": 129840,
      "type": "SCALAR"
    }
  ],
  "asset": {
    "extras": {
      "author": "Cloostyyyk (https://sketchfab.com/pmcsarbaev)",
      "license": "CC-BY-4.0 (http://creativecommons.org/licenses/by/4.0/)",
      "source": "https://sketchfab.com/3d-models/t-90ms-de538d03a4af49b699438e8fc2fcf52c",
      "title": "T-90MS"
    },
    "generator": "Sketchfab-15.61.0",
    "version": "2.0"
  },
  "bufferViews": [
    {
      "buffer": 0,
      "byteLength": 519996,
      "name": "floatBufferViews",
      "target": 34963
    },
    {
      "buffer": 0,
      "byteLength": 395136,
      "byteOffset": 519996,
      "byteStride": 8,
      "name": "floatBufferViews",
      "target": 34962
    },
    {
      "buffer": 0,
      "byteLength": 1185408,
      "byteOffset": 915132,
      "byteStride": 12,
      "name": "floatBufferViews",
      "target": 34962
    }
  ],
  "buffers": [
    {
      "byteLength": 2100540,
      "uri": "scene.bin"
    }
  ],
  "extensionsUsed": [
    "KHR_materials_clearcoat"
  ],
  "images": [
    {
      "uri": "textures/default_baseColor.jpeg"
    }
  ],
  "materials": [
    {
      "doubleSided": true,
      "name": "default",
      "pbrMetallicRoughness": {
        "baseColorTexture": {
          "index": 0
        },
        "metallicFactor": 0.0,
        "roughnessFactor": 0.6
      }
    },
    {
      "doubleSided": true,
      "extensions": {
        "KHR_materials_clearcoat": {
          "clearcoatFactor": 1.0,
          "clearcoatRoughnessFactor": 0.04
        }
      },
      "name": "object_1",
      "pbrMetallicRoughness": {
        "baseColorTexture": {
          "index": 0
        },
        "metallicFactor": 0.0,
        "roughnessFactor": 0.6
      }
    }
  ],
  "meshes": [
    {
      "name": "Object_0",
      "primitives": [
        {
          "attributes": {
            "NORMAL": 1,
            "POSITION": 0,
            "TEXCOORD_0": 2
          },
          "indices": 3,
          "material": 0,
          "mode": 4
        }
      ]
    },
    {
      "name": "Object_1",
      "primitives": [
        {
          "attributes": {
            "NORMAL": 5,
            "POSITION": 4,
            "TEXCOORD_0": 6
          },
          "indices": 7,
          "material": 1,
          "mode": 4
        }
      ]
    }
  ],
  "nodes": [
    {
      "children": [
        1
      ],
      "matrix": [
        1.0,
        0.0,
        0.0,
        0.0,
        0.0,
        2.220446049250313e-16,
        -1.0,
        0.0,
        0.0,
        1.0,
        2.220446049250313e-16,
        0.0,
        0.0,
        0.0,
        0.0,
        1.0
      ],
      "name": "Sketchfab_model"
    },
    {
      "children": [
        2,
        3
      ],
      "name": "T-90MS.obj.cleaner.materialmerger.gles"
    },
    {
      "mesh": 0,
      "name": "Object_2"
    },
    {
      "mesh": 1,
      "name": "Object_3"
    }
  ],
  "samplers": [
    {
      "magFilter": 9729,
      "minFilter": 9987,
      "wrapS": 10497,
      "wrapT": 10497
    }
  ],
  "scene": 0,
  "scenes": [
    {
      "name": "Sketchfab_Scene",
      "nodes": [
        0
      ]
    }
  ],
  "textures": [
    {
      "sampler": 0,
      "source": 0
    }
  ]
}
