{
  "accessors": [
    {
      "bufferView": 2,
      "componentType": 5126,
      "count": 6790,
      "max": [
        1.6903492212295532,
        1.4434452056884766,
        0.9872305393218994
      ],
      "min": [
        -0.9872310757637024,
        -0.9437220692634583,
        -0.9872304797172546
      ],
      "type": "VEC3"
    },
    {
      "bufferView": 2,
      "byteOffset": 81480,
      "componentType": 5126,
      "count": 6790,
      "max": [
        0.9996764063835144,
        1.0,
        0.9999988079071045
      ],
      "min": [
        -0.9999951720237732,
        -1.0,
        -0.9999988675117493
      ],
      "type": "VEC3"
    },
    {
      "bufferView": 3,
      "componentType": 5126,
      "count": 6790,
      "max": [
        1.0,
        0.9995640516281128,
        0.9999979734420776,
        1.0
      ],
      "min": [
        -0.9948385953903198,
        -0.9999987483024597,
        -0.9999979734420776,
        -1.0
      ],
      "type": "VEC4"
    },
    {
      "bufferView": 1,
      "componentType": 5126,
      "count": 6790,
      "max": [
        0.9928374290466309,
        0.9928579330444336
      ],
      "min": [
        0.0,
        0.0
      ],
      "type": "VEC2"
    },
    {
      "bufferView": 0,
      "componentType": 5125,
      "count": 30252,
      "type": "SCALAR"
    },
    {
      "bufferView": 2,
      "byteOffset": 162960,
      "componentType": 5126,
      "count": 16568,
      "max": [
        1.5734649896621704,
        0.31936460733413696,
        1.9043736457824707
      ],
      "min": [
        -1.3335912227630615,
        -1.7864785194396973,
        -1.9043736457824707
      ],
      "type": "VEC3"
    },
    {
      "bufferView": 2,
      "byteOffset": 361776,
      "componentType": 5126,
      "count": 16568,
      "max": [
        0.9998894929885864,
        0.999889612197876,
        0.9997063279151917
      ],
      "min": [
        -0.9998894929885864,
        -0.9999850988388062,
        -0.9997063279151917
      ],
      "type": "VEC3"
    },
    {
      "bufferView": 3,
      "byteOffset": 108640,
      "componentType": 5126,
      "count": 16568,
      "max": [
        0.999961793422699,
        0.999987006187439,
        0.9999988675117493,
        1.0
      ],
      "min": [
        -0.9999538660049438,
        -0.9999276399612427,
        -0.9999988675117493,
        -1.0
      ],
      "type": "VEC4"
    },
    {
      "bufferView": 1,
      "byteOffset": 54320,
      "componentType": 5126,
      "count": 16568,
      "max": [
        0.9914177656173706,
        0.9913996458053589
      ],
      "min": [
        0.00858224369585514,
        0.008600356057286263
      ],
      "type": "VEC2"
    },
    {
      "bufferView": 0,
      "byteOffset": 121008,
      "componentType": 5125,
      "count": 69012,
      "type": "SCALAR"
    }
  ],
  "asset": {
    "extras": {
      "author": "RIBEL3D (https://sketchfab.com/RIBEL3D)",
      "license": "CC-BY-4.0 (http://creativecommons.org/licenses/by/4.0/)",
      "source": "https://sketchfab.com/3d-models/spider-machinne-3d7f1fde343e45ba863c0e0705cb52a8",
      "title": "Spider Machinne"
    },
    "generator": "Sketchfab-15.53.0",
    "version": "2.0"
  },
  "bufferViews": [
    {
      "buffer": 0,
      "byteLength": 397056,
      "name": "floatBufferViews",
      "target": 34963
    },
    {
      "buffer": 0,
      "byteLength": 186864,
      "byteOffset": 397056,
      "byteStride": 8,
      "name": "floatBufferViews",
      "target": 34962
    },
    {
      "buffer": 0,
      "byteLength": 560592,
      "byteOffset": 583920,
      "byteStride": 12,
      "name": "floatBufferViews",
      "target": 34962
    },
    {
      "buffer": 0,
      "byteLength": 373728,
      "byteOffset": 1144512,
      "byteStride": 16,
      "name": "floatBufferViews",
      "target": 34962
    }
  ],
  "buffers": [
    {
      "byteLength": 1518240,
      "uri": "scene.bin"
    }
  ],
  "extensionsUsed": [
    "KHR_materials_clearcoat",
    "KHR_materials_specular"
  ],
  "images": [
    {
      "uri": "textures/Araa_Body_baseColor.png"
    },
    {
      "uri": "textures/Araa_Body_metallicRoughness.png"
    },
    {
      "uri": "textures/Araa_Body_normal.png"
    },
    {
      "uri": "textures/Araa_Legs_baseColor.png"
    },
    {
      "uri": "textures/Araa_Legs_metallicRoughness.png"
    },
    {
      "uri": "textures/Araa_Legs_normal.png"
    }
  ],
  "materials": [
    {
      "doubleSided": true,
      "extensions": {
        "KHR_materials_clearcoat": {
          "clearcoatFactor": 1.0,
          "clearcoatRoughnessFactor": 0.04
        },
        "KHR_materials_specular": {
          "specularColorFactor": [
            1.0,
            1.0,
            1.0
          ],
          "specularFactor": 1.0
        }
      },
      "name": "Araa_Body",
      "normalTexture": {
        "index": 2
      },
      "occlusionTexture": {
        "index": 1
      },
      "pbrMetallicRoughness": {
        "baseColorTexture": {
          "index": 0
        },
        "metallicRoughnessTexture": {
          "index": 1
        },
        "roughnessFactor": 0.19694993356170232
      }
    },
    {
      "doubleSided": true,
      "extensions": {
        "KHR_materials_clearcoat": {
          "clearcoatFactor": 1.0,
          "clearcoatRoughnessFactor": 0.04
        },
        "KHR_materials_specular": {
          "specularColorFactor": [
            1.0,
            1.0,
            1.0
          ],
          "specularFactor": 1.0
        }
      },
      "name": "Araa_Legs",
      "normalTexture": {
        "index": 5
      },
      "occlusionTexture": {
        "index": 4
      },
      "pbrMetallicRoughness": {
        "baseColorTexture": {
          "index": 3
        },
        "metallicRoughnessTexture": {
          "index": 4
        },
        "roughnessFactor": 0.2152357035754776
      }
    }
  ],
  "meshes": [
    {
      "name": "Object_0",
      "primitives": [
        {
          "attributes": {
            "NORMAL": 1,
            "POSITION": 0,
            "TANGENT": 2,
            "TEXCOORD_0": 3
          },
          "indices": 4,
          "material": 0,
          "mode": 4
        }
      ]
    },
    {
      "name": "Object_1",
      "primitives": [
        {
          "attributes": {
            "NORMAL": 6,
            "POSITION": 5,
            "TANGENT": 7,
            "TEXCOORD_0": 8
          },
          "indices": 9,
          "material": 1,
          "mode": 4
        }
      ]
    }
  ],
  "nodes": [
    {
      "children": [
        1
      ],
      "matrix": [
        1.0571638345718384,
        0.0,
        0.0,
        0.0,
        0.0,
        2.34737525988535e-16,
        -1.0571638345718384,
        0.0,
        0.0,
        1.0571638345718384,
        2.34737525988535e-16,
        0.0,
        0.0,
        0.0,
        0.0,
        1.0
      ],
      "name": "Sketchfab_model"
    },
    {
      "children": [
        2
      ],
      "name": "root"
    },
    {
      "children": [
        3,
        5
      ],
      "matrix": [
        1.0,
        0.0,
        0.0,
        0.0,
        0.0,
        2.220446049250313e-16,
        1.0,
        0.0,
        0.0,
        -1.0,
        2.220446049250313e-16,
        0.0,
        0.0,
        0.0,
        0.0,
        1.0
      ],
      "name": "GLTF_SceneRootNode"
    },
    {
      "children": [
        4
      ],
      "name": "Sphere_2"
    },
    {
      "mesh": 0,
      "name": "Object_4"
    },
    {
      "children": [
        6
      ],
      "name": "Sphere.001_3"
    },
    {
      "mesh": 1,
      "name": "Object_6"
    }
  ],
  "samplers": [
    {
      "magFilter": 9729,
      "minFilter": 9987,
      "wrapS": 10497,
      "wrapT": 10497
    }
  ],
  "scene": 0,
  "scenes": [
    {
      "name": "Sketchfab_Scene",
      "nodes": [
        0
      ]
    }
  ],
  "textures": [
    {
      "sampler": 0,
      "source": 0
    },
    {
      "sampler": 0,
      "source": 1
    },
    {
      "sampler": 0,
      "source": 2
    },
    {
      "sampler": 0,
      "source": 3
    },
    {
      "sampler": 0,
      "source": 4
    },
    {
      "sampler": 0,
      "source": 5
    }
  ]
}
