{
  "accessors": [
    {
      "bufferView": 2,
      "componentType": 5126,
      "count": 15582,
      "max": [
        75.62063598632813,
        255.75640869140625,
        223.20448303222656
      ],
      "min": [
        -73.9449691772461,
        -0.2397613525390625,
        -223.20449829101563
      ],
      "type": "VEC3"
    },
    {
      "bufferView": 2,
      "byteOffset": 186984,
      "componentType": 5126,
      "count": 15582,
      "max": [
        0.999921441078186,
        0.9999258518218994,
        0.9999685287475586
      ],
      "min": [
        -0.9999829530715942,
        -1.0,
        -0.9999538064002991
      ],
      "type": "VEC3"
    },
    {
      "bufferView": 3,
      "componentType": 5126,
      "count": 15582,
      "max": [
        0.9999581575393677,
        0.9997026324272156,
        0.9991837739944458,
        1.0
      ],
      "min": [
        -0.9999692440032959,
        -0.9998461604118347,
        -0.9997563362121582,
        -1.0
      ],
      "type": "VEC4"
    },
    {
      "bufferView": 1,
      "componentType": 5126,
      "count": 15582,
      "max": [
        0.9940519332885742,
        0.9687200784683228
      ],
      "min": [
        0.007865563966333866,
        0.016598105430603027
      ],
      "type": "VEC2"
    },
    {
      "bufferView": 1,
      "byteOffset": 124656,
      "componentType": 5126,
      "count": 15582,
      "max": [
        0.9940519332885742,
        0.9687200784683228
      ],
      "min": [
        0.007865563966333866,
        0.016598105430603027
      ],
      "type": "VEC2"
    },
    {
      "bufferView": 1,
      "byteOffset": 249312,
      "componentType": 5126,
      "count": 15582,
      "max": [
        0.9940519332885742,
        0.9687200784683228
      ],
      "min": [
        0.007865563966333866,
        0.016598105430603027
      ],
      "type": "VEC2"
    },
    {
      "bufferView": 1,
      "byteOffset": 373968,
      "componentType": 5126,
      "count": 15582,
      "max": [
        0.9940519332885742,
        0.9687200784683228
      ],
      "min": [
        0.007865563966333866,
        0.016598105430603027
      ],
      "type": "VEC2"
    },
    {
      "bufferView": 1,
      "byteOffset": 498624,
      "componentType": 5126,
      "count": 15582,
      "max": [
        0.9940519332885742,
        0.9687200784683228
      ],
      "min": [
        0.007865563966333866,
        0.016598105430603027
      ],
      "type": "VEC2"
    },
    {
      "bufferView": 0,
      "componentType": 5125,
      "count": 88035,
      "type": "SCALAR"
    }
  ],
  "asset": {
    "extras": {
      "author": "Zainnaufal (https://sketchfab.com/Zainnaufal)",
      "license": "CC-BY-4.0 (http://creativecommons.org/licenses/by/4.0/)",
      "source": "https://sketchfab.com/3d-models/cow-1c5ef683a89144b2aa6d028993b1fe61",
      "title": "Cow"
    },
    "generator": "Sketchfab-15.53.0",
    "version": "2.0"
  },
  "bufferViews": [
    {
      "buffer": 0,
      "byteLength": 352140,
      "name": "floatBufferViews",
      "target": 34963
    },
    {
      "buffer": 0,
      "byteLength": 623280,
      "byteOffset": 352140,
      "byteStride": 8,
      "name": "floatBufferViews",
      "target": 34962
    },
    {
      "buffer": 0,
      "byteLength": 373968,
      "byteOffset": 975420,
      "byteStride": 12,
      "name": "floatBufferViews",
      "target": 34962
    },
    {
      "buffer": 0,
      "byteLength": 249312,
      "byteOffset": 1349388,
      "byteStride": 16,
      "name": "floatBufferViews",
      "target": 34962
    }
  ],
  "buffers": [
    {
      "byteLength": 1598700,
      "uri": "scene.bin"
    }
  ],
  "extensionsRequired": [
    "KHR_materials_pbrSpecularGlossiness"
  ],
  "extensionsUsed": [
    "KHR_materials_pbrSpecularGlossiness"
  ],
  "images": [
    {
      "uri": "textures/material_0_diffuse.png"
    },
    {
      "uri": "textures/material_0_specularGlossiness.png"
    },
    {
      "uri": "textures/material_0_normal.png"
    },
    {
      "uri": "textures/material_0_occlusion.png"
    }
  ],
  "materials": [
    {
      "doubleSided": true,
      "extensions": {
        "KHR_materials_pbrSpecularGlossiness": {
          "diffuseFactor": [
            1.0,
            1.0,
            1.0,
            1.0
          ],
          "diffuseTexture": {
            "index": 0
          },
          "glossinessFactor": 1.0,
          "specularFactor": [
            1.0,
            1.0,
            1.0
          ],
          "specularGlossinessTexture": {
            "index": 1
          }
        }
      },
      "name": "material_0",
      "normalTexture": {
        "index": 2
      },
      "occlusionTexture": {
        "index": 3
      }
    }
  ],
  "meshes": [
    {
      "name": "Object_0",
      "primitives": [
        {
          "attributes": {
            "NORMAL": 1,
            "POSITION": 0,
            "TANGENT": 2,
            "TEXCOORD_0": 3,
            "TEXCOORD_1": 4,
            "TEXCOORD_2": 5,
            "TEXCOORD_3": 6,
            "TEXCOORD_4": 7
          },
          "indices": 8,
          "material": 0,
          "mode": 4
        }
      ]
    }
  ],
  "nodes": [
    {
      "children": [
        1
      ],
      "matrix": [
        1.0,
        0.0,
        0.0,
        0.0,
        0.0,
        2.220446049250313e-16,
        -1.0,
        0.0,
        0.0,
        1.0,
        2.220446049250313e-16,
        0.0,
        0.0,
        0.0,
        0.0,
        1.0
      ],
      "name": "Sketchfab_model"
    },
    {
      "children": [
        2
      ],
      "name": "root"
    },
    {
      "children": [
        3
      ],
      "matrix": [
        1.0,
        0.0,
        0.0,
        0.0,
        0.0,
        2.220446049250313e-16,
        1.0,
        0.0,
        0.0,
        -1.0,
        2.220446049250313e-16,
        0.0,
        0.0,
        0.0,
        0.0,
        1.0
      ],
      "name": "GLTF_SceneRootNode"
    },
    {
      "children": [
        4
      ],
      "matrix": [
        0.009999999776482582,
        0.0,
        0.0,
        0.0,
        0.0,
        0.009999999776482582,
        0.0,
        0.0,
        0.0,
        0.0,
        0.009999999776482582,
        0.0,
        0.0,
        0.0,
        0.0,
        1.0
      ],
      "name": "RootNode.0_0"
    },
    {
      "children": [
        5
      ],
      "name": "cow.1_1"
    },
    {
      "mesh": 0,
      "name": "Object_5"
    }
  ],
  "samplers": [
    {
      "magFilter": 9729,
      "minFilter": 9987,
      "wrapS": 10497,
      "wrapT": 10497
    }
  ],
  "scene": 0,
  "scenes": [
    {
      "name": "Sketchfab_Scene",
      "nodes": [
        0
      ]
    }
  ],
  "textures": [
    {
      "sampler": 0,
      "source": 0
    },
    {
      "sampler": 0,
      "source": 1
    },
    {
      "sampler": 0,
      "source": 2
    },
    {
      "sampler": 0,
      "source": 3
    }
  ]
}
