{
  "accessors": [
    {
      "bufferView": 2,
      "componentType": 5126,
      "count": 11814,
      "max": [
        2.8940629959106445,
        1.5094159841537476,
        1.9167779684066772
      ],
      "min": [
        -2.9023818969726563,
        -4.723295211791992,
        -10.710140228271484
      ],
      "type": "VEC3"
    },
    {
      "bufferView": 2,
      "byteOffset": 141768,
      "componentType": 5126,
      "count": 11814,
      "max": [
        0.999998152256012,
        0.9999616146087646,
        0.9991307854652405
      ],
      "min": [
        -0.9995042681694031,
        -0.9999769926071167,
        -0.9998089075088501
      ],
      "type": "VEC3"
    },
    {
      "bufferView": 3,
      "componentType": 5126,
      "count": 11814,
      "max": [
        0.9972524046897888,
        0.9998598098754883,
        0.9992870092391968,
        1.0
      ],
      "min": [
        -0.9999909400939941,
        -0.9998338222503662,
        -0.9998236894607544,
        1.0
      ],
      "type": "VEC4"
    },
    {
      "bufferView": 1,
      "componentType": 5126,
      "count": 11814,
      "max": [
        0.9277889728546143,
        0.9656630158424377
      ],
      "min": [
        0.06955700367689133,
        0.03897700086236
      ],
      "type": "VEC2"
    },
    {
      "bufferView": 1,
      "byteOffset": 94512,
      "componentType": 5126,
      "count": 11814,
      "max": [
        0.9277889728546143,
        0.9656630158424377
      ],
      "min": [
        0.06955700367689133,
        0.03897700086236
      ],
      "type": "VEC2"
    },
    {
      "bufferView": 1,
      "byteOffset": 189024,
      "componentType": 5126,
      "count": 11814,
      "max": [
        0.9277889728546143,
        0.9656630158424377
      ],
      "min": [
        0.06955700367689133,
        0.03897700086236
      ],
      "type": "VEC2"
    },
    {
      "bufferView": 0,
      "componentType": 5125,
      "count": 68094,
      "type": "SCALAR"
    }
  ],
  "asset": {
    "extras": {
      "author": "Mishigan (https://sketchfab.com/Mishigan)",
      "license": "CC-BY-4.0 (http://creativecommons.org/licenses/by/4.0/)",
      "source": "https://sketchfab.com/3d-models/tiger-tea-pet-86086047047848aea4eadac0fe0f6552",
      "title": "Tiger Tea Pet"
    },
    "generator": "Sketchfab-15.53.0",
    "version": "2.0"
  },
  "bufferViews": [
    {
      "buffer": 0,
      "byteLength": 272376,
      "name": "floatBufferViews",
      "target": 34963
    },
    {
      "buffer": 0,
      "byteLength": 283536,
      "byteOffset": 272376,
      "byteStride": 8,
      "name": "floatBufferViews",
      "target": 34962
    },
    {
      "buffer": 0,
      "byteLength": 283536,
      "byteOffset": 555912,
      "byteStride": 12,
      "name": "floatBufferViews",
      "target": 34962
    },
    {
      "buffer": 0,
      "byteLength": 189024,
      "byteOffset": 839448,
      "byteStride": 16,
      "name": "floatBufferViews",
      "target": 34962
    }
  ],
  "buffers": [
    {
      "byteLength": 1028472,
      "uri": "scene.bin"
    }
  ],
  "images": [
    {
      "uri": "textures/Material.001_baseColor.png"
    },
    {
      "uri": "textures/Material.001_metallicRoughness.png"
    },
    {
      "uri": "textures/Material.001_normal.png"
    }
  ],
  "materials": [
    {
      "doubleSided": true,
      "name": "Material.001",
      "normalTexture": {
        "index": 2
      },
      "pbrMetallicRoughness": {
        "baseColorTexture": {
          "index": 0
        },
        "metallicRoughnessTexture": {
          "index": 1
        }
      }
    }
  ],
  "meshes": [
    {
      "name": "Bodytiger_Low_uv_Material.001_0",
      "primitives": [
        {
          "attributes": {
            "NORMAL": 1,
            "POSITION": 0,
            "TANGENT": 2,
            "TEXCOORD_0": 3,
            "TEXCOORD_1": 4,
            "TEXCOORD_2": 5
          },
          "indices": 6,
          "material": 0,
          "mode": 4
        }
      ]
    }
  ],
  "nodes": [
    {
      "children": [
        1
      ],
      "matrix": [
        1.0,
        0.0,
        0.0,
        0.0,
        0.0,
        2.220446049250313e-16,
        -1.0,
        0.0,
        0.0,
        1.0,
        2.220446049250313e-16,
        0.0,
        0.0,
        0.0,
        0.0,
        1.0
      ],
      "name": "Sketchfab_model"
    },
    {
      "children": [
        2
      ],
      "matrix": [
        0.009999999776482582,
        0.0,
        0.0,
        0.0,
        0.0,
        0.0,
        0.009999999776482582,
        0.0,
        0.0,
        -0.009999999776482582,
        0.0,
        0.0,
        0.0,
        0.0,
        0.0,
        1.0
      ],
      "name": "adc8d484ff5046ae9986447ffdd8e587.fbx"
    },
    {
      "children": [
        3
      ],
      "name": "RootNode"
    },
    {
      "children": [
        4
      ],
      "matrix": [
        100.0,
        0.0,
        0.0,
        0.0,
        0.0,
        99.99999999999972,
        -7.5497901264043296e-06,
        0.0,
        0.0,
        7.5497901264043296e-06,
        99.99999999999972,
        0.0,
        0.0,
        0.0,
        0.0,
        1.0
      ],
      "name": "Bodytiger_Low_uv"
    },
    {
      "mesh": 0,
      "name": "Bodytiger_Low_uv_Material.001_0"
    }
  ],
  "samplers": [
    {
      "magFilter": 9729,
      "minFilter": 9987,
      "wrapS": 10497,
      "wrapT": 10497
    }
  ],
  "scene": 0,
  "scenes": [
    {
      "name": "Sketchfab_Scene",
      "nodes": [
        0
      ]
    }
  ],
  "textures": [
    {
      "sampler": 0,
      "source": 0
    },
    {
      "sampler": 0,
      "source": 1
    },
    {
      "sampler": 0,
      "source": 2
    }
  ]
}
