{
  "accessors": [
    {
      "bufferView": 2,
      "componentType": 5126,
      "count": 4239,
      "max": [
        0.11271409690380096,
        0.008450206369161606,
        0.6377474069595337
      ],
      "min": [
        -1.5768520832061768,
        -1.5593628883361816,
        -0.7361606359481812
      ],
      "type": "VEC3"
    },
    {
      "bufferView": 2,
      "byteOffset": 50868,
      "componentType": 5126,
      "count": 4239,
      "max": [
        0.8473348021507263,
        0.9999587535858154,
        0.9995663166046143
      ],
      "min": [
        -0.775209903717041,
        -0.9998990893363953,
        -0.9999002814292908
      ],
      "type": "VEC3"
    },
    {
      "bufferView": 1,
      "componentType": 5126,
      "count": 4239,
      "max": [
        0.6235450506210327,
        0.9997391700744629
      ],
      "min": [
        0.00027951598167419434,
        0.00026094913482666016
      ],
      "type": "VEC2"
    },
    {
      "bufferView": 0,
      "componentType": 5125,
      "count": 24582,
      "type": "SCALAR"
    },
    {
      "bufferView": 2,
      "byteOffset": 101736,
      "componentType": 5126,
      "count": 2329,
      "max": [
        0.2669207453727722,
        -0.013078752905130386,
        0.20284806191921234
      ],
      "min": [
        -0.6013107299804688,
        -1.5551512241363525,
        -1.127294898033142
      ],
      "type": "VEC3"
    },
    {
      "bufferView": 2,
      "byteOffset": 129684,
      "componentType": 5126,
      "count": 2329,
      "max": [
        0.9998545050621033,
        0.9513464570045471,
        0.9259713292121887
      ],
      "min": [
        -0.9026498794555664,
        -0.9745993614196777,
        -0.9984310269355774
      ],
      "type": "VEC3"
    },
    {
      "bufferView": 1,
      "byteOffset": 33912,
      "componentType": 5126,
      "count": 2329,
      "max": [
        0.6984081864356995,
        0.99981689453125
      ],
      "min": [
        0.0001449882984161377,
        0.0001830458641052246
      ],
      "type": "VEC2"
    },
    {
      "bufferView": 0,
      "byteOffset": 98328,
      "componentType": 5125,
      "count": 13386,
      "type": "SCALAR"
    },
    {
      "bufferView": 2,
      "byteOffset": 157632,
      "componentType": 5126,
      "count": 3328,
      "max": [
        -0.06522257626056671,
        0.08727321028709412,
        -0.15185488760471344
      ],
      "min": [
        -1.543340802192688,
        -1.3909975290298462,
        -1.0174669027328491
      ],
      "type": "VEC3"
    },
    {
      "bufferView": 2,
      "byteOffset": 197568,
      "componentType": 5126,
      "count": 3328,
      "max": [
        0.9361617565155029,
        0.9999579787254333,
        0.5962557196617126
      ],
      "min": [
        -0.9727427363395691,
        -0.9361069202423096,
        -0.9999828934669495
      ],
      "type": "VEC3"
    },
    {
      "bufferView": 1,
      "byteOffset": 52544,
      "componentType": 5126,
      "count": 3328,
      "max": [
        0.9997146129608154,
        0.8669213056564331
      ],
      "min": [
        0.0002854466438293457,
        0.00014060735702514648
      ],
      "type": "VEC2"
    },
    {
      "bufferView": 0,
      "byteOffset": 151872,
      "componentType": 5125,
      "count": 19323,
      "type": "SCALAR"
    },
    {
      "bufferView": 2,
      "byteOffset": 237504,
      "componentType": 5126,
      "count": 1902,
      "max": [
        -1.1542603969573975,
        -0.11929017305374146,
        0.4952646493911743
      ],
      "min": [
        -1.9211686849594116,
        -1.3534444570541382,
        -0.9685319662094116
      ],
      "type": "VEC3"
    },
    {
      "bufferView": 2,
      "byteOffset": 260328,
      "componentType": 5126,
      "count": 1902,
      "max": [
        0.4232706129550934,
        0.9257699251174927,
        0.874032735824585
      ],
      "min": [
        -0.9978976249694824,
        -0.9988266825675964,
        -0.9999864101409912
      ],
      "type": "VEC3"
    },
    {
      "bufferView": 1,
      "byteOffset": 79168,
      "componentType": 5126,
      "count": 1902,
      "max": [
        0.8281518816947937,
        0.9998269081115723
      ],
      "min": [
        7.492303848266602e-05,
        0.00017327070236206055
      ],
      "type": "VEC2"
    },
    {
      "bufferView": 0,
      "byteOffset": 229164,
      "componentType": 5125,
      "count": 10956,
      "type": "SCALAR"
    }
  ],
  "asset": {
    "extras": {
      "author": "Société Géologique de France (https://sketchfab.com/sgfrance)",
      "license": "CC-BY-NC-SA-4.0 (http://creativecommons.org/licenses/by-nc-sa/4.0/)",
      "source": "https://sketchfab.com/3d-models/cephalopode-nautile-4d70b22264394d00b13b1dcefb7b8eae",
      "title": "Cephalopode - Nautile"
    },
    "generator": "Sketchfab-15.53.0",
    "version": "2.0"
  },
  "bufferViews": [
    {
      "buffer": 0,
      "byteLength": 272988,
      "name": "floatBufferViews",
      "target": 34963
    },
    {
      "buffer": 0,
      "byteLength": 94384,
      "byteOffset": 272988,
      "byteStride": 8,
      "name": "floatBufferViews",
      "target": 34962
    },
    {
      "buffer": 0,
      "byteLength": 283152,
      "byteOffset": 367372,
      "byteStride": 12,
      "name": "floatBufferViews",
      "target": 34962
    }
  ],
  "buffers": [
    {
      "byteLength": 650524,
      "uri": "scene.bin"
    }
  ],
  "extensionsUsed": [
    "KHR_materials_unlit"
  ],
  "images": [
    {
      "uri": "textures/material0_baseColor.jpeg"
    },
    {
      "uri": "textures/material1_baseColor.jpeg"
    },
    {
      "uri": "textures/material2_baseColor.jpeg"
    },
    {
      "uri": "textures/material3_baseColor.jpeg"
    }
  ],
  "materials": [
    {
      "doubleSided": true,
      "extensions": {
        "KHR_materials_unlit": {}
      },
      "name": "material0",
      "pbrMetallicRoughness": {
        "baseColorTexture": {
          "index": 0
        },
        "metallicFactor": 0.0
      }
    },
    {
      "doubleSided": true,
      "extensions": {
        "KHR_materials_unlit": {}
      },
      "name": "material1",
      "pbrMetallicRoughness": {
        "baseColorTexture": {
          "index": 1
        },
        "metallicFactor": 0.0
      }
    },
    {
      "doubleSided": true,
      "extensions": {
        "KHR_materials_unlit": {}
      },
      "name": "material2",
      "pbrMetallicRoughness": {
        "baseColorTexture": {
          "index": 2
        },
        "metallicFactor": 0.0
      }
    },
    {
      "doubleSided": true,
      "extensions": {
        "KHR_materials_unlit": {}
      },
      "name": "material3",
      "pbrMetallicRoughness": {
        "baseColorTexture": {
          "index": 3
        },
        "metallicFactor": 0.0
      }
    }
  ],
  "meshes": [
    {
      "name": "Model_material0_0",
      "primitives": [
        {
          "attributes": {
            "NORMAL": 1,
            "POSITION": 0,
            "TEXCOORD_0": 2
          },
          "indices": 3,
          "material": 0,
          "mode": 4
        }
      ]
    },
    {
      "name": "Model_material1_0",
      "primitives": [
        {
          "attributes": {
            "NORMAL": 5,
            "POSITION": 4,
            "TEXCOORD_0": 6
          },
          "indices": 7,
          "material": 1,
          "mode": 4
        }
      ]
    },
    {
      "name": "Model_material2_0",
      "primitives": [
        {
          "attributes": {
            "NORMAL": 9,
            "POSITION": 8,
            "TEXCOORD_0": 10
          },
          "indices": 11,
          "material": 2,
          "mode": 4
        }
      ]
    },
    {
      "name": "Model_material3_0",
      "primitives": [
        {
          "attributes": {
            "NORMAL": 13,
            "POSITION": 12,
            "TEXCOORD_0": 14
          },
          "indices": 15,
          "material": 3,
          "mode": 4
        }
      ]
    }
  ],
  "nodes": [
    {
      "children": [
        1
      ],
      "matrix": [
        -0.4297601878643036,
        0.892485499382019,
        0.13702480494976063,
        0.0,
        0.1274300217628479,
        -0.09028618782758735,
        0.9877297282218933,
        0.0,
        0.8939058780670166,
        0.4419479966163635,
        -0.07492803782224645,
        0.0,
        0.0,
        0.0,
        0.0,
        1.0
      ],
      "name": "Sketchfab_model"
    },
    {
      "children": [
        2
      ],
      "matrix": [
        1.0,
        0.0,
        0.0,
        0.0,
        0.0,
        -1.0,
        0.0,
        0.0,
        0.0,
        0.0,
        -1.0,
        0.0,
        0.0,
        0.0,
        0.0,
        1.0
      ],
      "name": "model.fbx"
    },
    {
      "children": [
        3
      ],
      "name": "RootNode"
    },
    {
      "children": [
        4,
        5,
        6,
        7
      ],
      "name": "Model"
    },
    {
      "mesh": 0,
      "name": "Model_material0_0"
    },
    {
      "mesh": 1,
      "name": "Model_material1_0"
    },
    {
      "mesh": 2,
      "name": "Model_material2_0"
    },
    {
      "mesh": 3,
      "name": "Model_material3_0"
    }
  ],
  "samplers": [
    {
      "magFilter": 9729,
      "minFilter": 9987,
      "wrapS": 10497,
      "wrapT": 10497
    }
  ],
  "scene": 0,
  "scenes": [
    {
      "name": "Sketchfab_Scene",
      "nodes": [
        0
      ]
    }
  ],
  "textures": [
    {
      "sampler": 0,
      "source": 0
    },
    {
      "sampler": 0,
      "source": 1
    },
    {
      "sampler": 0,
      "source": 2
    },
    {
      "sampler": 0,
      "source": 3
    }
  ]
}
