{
  "accessors": [
    {
      "bufferView": 2,
      "componentType": 5126,
      "count": 292,
      "max": [
        0.8554830551147461,
        0.9911636114120483,
        1.0808948278427124
      ],
      "min": [
        -0.8540934324264526,
        -0.39090991020202637,
        -0.7373625040054321
      ],
      "type": "VEC3"
    },
    {
      "bufferView": 2,
      "byteOffset": 3504,
      "componentType": 5126,
      "count": 292,
      "max": [
        0.9829421639442444,
        0.9818288087844849,
        0.9708579182624817
      ],
      "min": [
        -0.9830148220062256,
        -0.9983583092689514,
        -0.975992739200592
      ],
      "type": "VEC3"
    },
    {
      "bufferView": 1,
      "componentType": 5126,
      "count": 292,
      "max": [
        1.0,
        0.45205554366111755
      ],
      "min": [
        0.023282699286937714,
        0.03016752190887928
      ],
      "type": "VEC2"
    },
    {
      "bufferView": 0,
      "componentType": 5125,
      "count": 294,
      "type": "SCALAR"
    },
    {
      "bufferView": 2,
      "byteOffset": 7008,
      "componentType": 5126,
      "count": 60,
      "max": [
        0.8944249749183655,
        0.8506399989128113,
        1.0
      ],
      "min": [
        -0.8944249749183655,
        -0.8506399989128113,
        -1.0
      ],
      "type": "VEC3"
    },
    {
      "bufferView": 2,
      "byteOffset": 7728,
      "componentType": 5126,
      "count": 60,
      "max": [
        0.9822462201118469,
        0.9341716170310974,
        0.79465252161026
      ],
      "min": [
        -0.9822462201118469,
        -0.9341716170310974,
        -0.79465252161026
      ],
      "type": "VEC3"
    },
    {
      "bufferView": 1,
      "byteOffset": 2336,
      "componentType": 5126,
      "count": 60,
      "max": [
        1.0,
        0.47238200902938843
      ],
      "min": [
        0.0,
        0.0
      ],
      "type": "VEC2"
    },
    {
      "bufferView": 0,
      "byteOffset": 1176,
      "componentType": 5125,
      "count": 60,
      "type": "SCALAR"
    },
    {
      "bufferView": 2,
      "byteOffset": 8448,
      "componentType": 5126,
      "count": 60,
      "max": [
        0.8944249749183655,
        0.8506399989128113,
        1.0
      ],
      "min": [
        -0.8944249749183655,
        -0.8506399989128113,
        -1.0
      ],
      "type": "VEC3"
    },
    {
      "bufferView": 2,
      "byteOffset": 9168,
      "componentType": 5126,
      "count": 60,
      "max": [
        0.9822462201118469,
        0.9341716170310974,
        0.79465252161026
      ],
      "min": [
        -0.9822462201118469,
        -0.9341716170310974,
        -0.79465252161026
      ],
      "type": "VEC3"
    },
    {
      "bufferView": 1,
      "byteOffset": 2816,
      "componentType": 5126,
      "count": 60,
      "max": [
        1.0,
        0.47238200902938843
      ],
      "min": [
        0.0,
        0.0
      ],
      "type": "VEC2"
    },
    {
      "bufferView": 0,
      "byteOffset": 1416,
      "componentType": 5125,
      "count": 60,
      "type": "SCALAR"
    },
    {
      "bufferView": 2,
      "byteOffset": 9888,
      "componentType": 5126,
      "count": 54,
      "max": [
        0.9848077297210693,
        1.0,
        1.0
      ],
      "min": [
        -0.9848077297210693,
        -0.9396926164627075,
        -1.0
      ],
      "type": "VEC3"
    },
    {
      "bufferView": 2,
      "byteOffset": 10536,
      "componentType": 5126,
      "count": 54,
      "max": [
        0.9848078489303589,
        0.9396926760673523,
        1.0
      ],
      "min": [
        -0.9848078489303589,
        -1.0,
        -1.0
      ],
      "type": "VEC3"
    },
    {
      "bufferView": 1,
      "byteOffset": 3296,
      "componentType": 5126,
      "count": 54,
      "max": [
        1.0,
        1.0
      ],
      "min": [
        4.470348358154297e-08,
        0.024473771452903748
      ],
      "type": "VEC2"
    },
    {
      "bufferView": 0,
      "byteOffset": 1656,
      "componentType": 5125,
      "count": 96,
      "type": "SCALAR"
    },
    {
      "bufferView": 2,
      "byteOffset": 11184,
      "componentType": 5126,
      "count": 54,
      "max": [
        0.9848077297210693,
        1.0,
        1.0
      ],
      "min": [
        -0.9848077297210693,
        -0.9396926164627075,
        -1.0
      ],
      "type": "VEC3"
    },
    {
      "bufferView": 2,
      "byteOffset": 11832,
      "componentType": 5126,
      "count": 54,
      "max": [
        0.9848078489303589,
        0.9396926760673523,
        1.0
      ],
      "min": [
        -0.9848078489303589,
        -1.0,
        -1.0
      ],
      "type": "VEC3"
    },
    {
      "bufferView": 1,
      "byteOffset": 3728,
      "componentType": 5126,
      "count": 54,
      "max": [
        1.0,
        1.0
      ],
      "min": [
        4.470348358154297e-08,
        0.024473771452903748
      ],
      "type": "VEC2"
    },
    {
      "bufferView": 0,
      "byteOffset": 2040,
      "componentType": 5125,
      "count": 96,
      "type": "SCALAR"
    },
    {
      "bufferView": 2,
      "byteOffset": 12480,
      "componentType": 5126,
      "count": 54,
      "max": [
        0.9848077297210693,
        1.0,
        1.0
      ],
      "min": [
        -0.9848077297210693,
        -0.9396926164627075,
        -1.0
      ],
      "type": "VEC3"
    },
    {
      "bufferView": 2,
      "byteOffset": 13128,
      "componentType": 5126,
      "count": 54,
      "max": [
        0.9848078489303589,
        0.9396926760673523,
        1.0
      ],
      "min": [
        -0.9848078489303589,
        -1.0,
        -1.0
      ],
      "type": "VEC3"
    },
    {
      "bufferView": 1,
      "byteOffset": 4160,
      "componentType": 5126,
      "count": 54,
      "max": [
        1.0,
        1.0
      ],
      "min": [
        4.470348358154297e-08,
        0.024473771452903748
      ],
      "type": "VEC2"
    },
    {
      "bufferView": 0,
      "byteOffset": 2424,
      "componentType": 5125,
      "count": 96,
      "type": "SCALAR"
    },
    {
      "bufferView": 2,
      "byteOffset": 13776,
      "componentType": 5126,
      "count": 54,
      "max": [
        0.9848077297210693,
        1.0,
        1.0
      ],
      "min": [
        -0.9848077297210693,
        -0.9396926164627075,
        -1.0
      ],
      "type": "VEC3"
    },
    {
      "bufferView": 2,
      "byteOffset": 14424,
      "componentType": 5126,
      "count": 54,
      "max": [
        0.9848078489303589,
        0.9396926760673523,
        1.0
      ],
      "min": [
        -0.9848078489303589,
        -1.0,
        -1.0
      ],
      "type": "VEC3"
    },
    {
      "bufferView": 1,
      "byteOffset": 4592,
      "componentType": 5126,
      "count": 54,
      "max": [
        1.0,
        1.0
      ],
      "min": [
        4.470348358154297e-08,
        0.024473771452903748
      ],
      "type": "VEC2"
    },
    {
      "bufferView": 0,
      "byteOffset": 2808,
      "componentType": 5125,
      "count": 96,
      "type": "SCALAR"
    }
  ],
  "asset": {
    "extras": {
      "author": "wildrights2003 (https://sketchfab.com/wildrights2003)",
      "license": "CC-BY-4.0 (http://creativecommons.org/licenses/by/4.0/)",
      "source": "https://sketchfab.com/3d-models/low-poly-sheep-f64580f21f174037a001c0903069b230",
      "title": "Low Poly Sheep"
    },
    "generator": "Sketchfab-15.53.0",
    "version": "2.0"
  },
  "bufferViews": [
    {
      "buffer": 0,
      "byteLength": 3192,
      "name": "floatBufferViews",
      "target": 34963
    },
    {
      "buffer": 0,
      "byteLength": 5024,
      "byteOffset": 3192,
      "byteStride": 8,
      "name": "floatBufferViews",
      "target": 34962
    },
    {
      "buffer": 0,
      "byteLength": 15072,
      "byteOffset": 8216,
      "byteStride": 12,
      "name": "floatBufferViews",
      "target": 34962
    }
  ],
  "buffers": [
    {
      "byteLength": 23288,
      "uri": ".bin"
    }
  ],
  "materials": [
    {
      "doubleSided": true,
      "name": "Material",
      "pbrMetallicRoughness": {
        "baseColorFactor": [
          0.8,
          0.8,
          0.8,
          1.0
        ],
        "metallicFactor": 0.0,
        "roughnessFactor": 0.8211145618000169
      }
    },
    {
      "doubleSided": true,
      "name": "Material.001",
      "pbrMetallicRoughness": {
        "baseColorFactor": [
          0.00278303,
          0.00364693,
          0.0162536,
          1.0
        ],
        "metallicFactor": 0.0,
        "roughnessFactor": 0.9990220631756263
      }
    }
  ],
  "meshes": [
    {
      "name": "Icosphere_Material_0",
      "primitives": [
        {
          "attributes": {
            "NORMAL": 1,
            "POSITION": 0,
            "TEXCOORD_0": 2
          },
          "indices": 3,
          "material": 0,
          "mode": 4
        }
      ]
    },
    {
      "name": "Icosphere.001_Material.001_0",
      "primitives": [
        {
          "attributes": {
            "NORMAL": 5,
            "POSITION": 4,
            "TEXCOORD_0": 6
          },
          "indices": 7,
          "material": 1,
          "mode": 4
        }
      ]
    },
    {
      "name": "Icosphere.002_Material.001_0",
      "primitives": [
        {
          "attributes": {
            "NORMAL": 9,
            "POSITION": 8,
            "TEXCOORD_0": 10
          },
          "indices": 11,
          "material": 1,
          "mode": 4
        }
      ]
    },
    {
      "name": "Cylinder_Material.001_0",
      "primitives": [
        {
          "attributes": {
            "NORMAL": 13,
            "POSITION": 12,
            "TEXCOORD_0": 14
          },
          "indices": 15,
          "material": 1,
          "mode": 4
        }
      ]
    },
    {
      "name": "Cylinder.001_Material.001_0",
      "primitives": [
        {
          "attributes": {
            "NORMAL": 17,
            "POSITION": 16,
            "TEXCOORD_0": 18
          },
          "indices": 19,
          "material": 1,
          "mode": 4
        }
      ]
    },
    {
      "name": "Cylinder.002_Material.001_0",
      "primitives": [
        {
          "attributes": {
            "NORMAL": 21,
            "POSITION": 20,
            "TEXCOORD_0": 22
          },
          "indices": 23,
          "material": 1,
          "mode": 4
        }
      ]
    },
    {
      "name": "Cylinder.003_Material.001_0",
      "primitives": [
        {
          "attributes": {
            "NORMAL": 25,
            "POSITION": 24,
            "TEXCOORD_0": 26
          },
          "indices": 27,
          "material": 1,
          "mode": 4
        }
      ]
    }
  ],
  "nodes": [
    {
      "children": [
        1
      ],
      "matrix": [
        1.0,
        0.0,
        0.0,
        0.0,
        0.0,
        2.220446049250313e-16,
        -1.0,
        0.0,
        0.0,
        1.0,
        2.220446049250313e-16,
        0.0,
        0.0,
        0.0,
        0.0,
        1.0
      ],
      "name": "Sketchfab_model"
    },
    {
      "children": [
        2
      ],
      "matrix": [
        0.009999999776482582,
        0.0,
        0.0,
        0.0,
        0.0,
        0.0,
        0.009999999776482582,
        0.0,
        0.0,
        -0.009999999776482582,
        0.0,
        0.0,
        0.0,
        0.0,
        0.0,
        1.0
      ],
      "name": "5e6e4a5235164df3ac28d0f59f720984.fbx"
    },
    {
      "children": [
        3,
        5,
        7,
        9,
        11,
        13,
        15
      ],
      "name": "RootNode"
    },
    {
      "children": [
        4
      ],
      "matrix": [
        100.0,
        0.0,
        0.0,
        0.0,
        0.0,
        99.9999999999999,
        4.371138828673792e-06,
        0.0,
        0.0,
        -6.3028672416441875e-06,
        144.19279479980455,
        0.0,
        0.0,
        0.0,
        0.0,
        1.0
      ],
      "name": "Icosphere"
    },
    {
      "mesh": 0,
      "name": "Icosphere_Material_0"
    },
    {
      "children": [
        6
      ],
      "matrix": [
        20.05324935913086,
        0.0,
        0.0,
        0.0,
        0.0,
        -3.2670890096034075e-06,
        -20.053249359130593,
        0.0,
        0.0,
        20.053249359130593,
        -3.2670890096034075e-06,
        0.0,
        7.054863929748535,
        33.316932678222656,
        149.91941833496094,
        1.0
      ],
      "name": "Icosphere.001"
    },
    {
      "mesh": 1,
      "name": "Icosphere.001_Material.001_0"
    },
    {
      "children": [
        8
      ],
      "matrix": [
        50.10616683959961,
        1.0042935770595715e-14,
        -6.338010489789921e-15,
        0.0,
        6.338011935622594e-15,
        -45.229361471271616,
        -21.562300810879197,
        0.0,
        -1.004293485814299e-14,
        21.562300810879197,
        -45.229361471271616,
        0.0,
        0.0,
        69.44501495361328,
        -86.79133605957031,
        1.0
      ],
      "name": "Icosphere.002"
    },
    {
      "mesh": 2,
      "name": "Icosphere.002_Material.001_0"
    },
    {
      "children": [
        10
      ],
      "matrix": [
        12.61332617053949,
        1.175949432272471,
        0.19222387629486198,
        0.0,
        0.027721087388259125,
        1.7425699287808434,
        -12.479351065605229,
        0.0,
        -4.849911882819227,
        50.86137052541282,
        7.091318251871285,
        0.0,
        22.68701934814453,
        -58.338069915771484,
        -53.8006706237793,
        1.0
      ],
      "name": "Cylinder"
    },
    {
      "mesh": 3,
      "name": "Cylinder_Material.001_0"
    },
    {
      "children": [
        12
      ],
      "matrix": [
        12.61332616108074,
        1.1769568087651265,
        -0.18595697027479244,
        0.0,
        0.027721101932556922,
        -2.2557657403297786,
        -12.396865486858434,
        0.0,
        -4.849911930515363,
        50.52180905918784,
        -9.203924253202743,
        0.0,
        22.68701934814453,
        -57.68986892700195,
        126.39916229248047,
        1.0
      ],
      "name": "Cylinder.001"
    },
    {
      "mesh": 4,
      "name": "Cylinder.001_Material.001_0"
    },
    {
      "children": [
        14
      ],
      "matrix": [
        12.526033556929406,
        -1.892011482295603,
        -0.18595712365015274,
        0.0,
        -0.5157651961416048,
        -2.1961846931707183,
        -12.396865752678424,
        0.0,
        7.4466143795980715,
        50.204809351496046,
        -9.203918201884381,
        0.0,
        -44.2509880065918,
        -57.69938659667969,
        126.39916229248047,
        1.0
      ],
      "name": "Cylinder.002"
    },
    {
      "mesh": 5,
      "name": "Cylinder.002_Material.001_0"
    },
    {
      "children": [
        16
      ],
      "matrix": [
        12.525791207236086,
        -1.8929893693984263,
        0.19222395888098495,
        0.0,
        0.4461193870826276,
        1.6847258212266059,
        -12.479350857867606,
        0.0,
        7.528302545343193,
        50.534392697630786,
        7.091323816672179,
        0.0,
        -44.406925201416016,
        -58.32855224609375,
        -53.80067825317383,
        1.0
      ],
      "name": "Cylinder.003"
    },
    {
      "mesh": 6,
      "name": "Cylinder.003_Material.001_0"
    }
  ],
  "scene": 0,
  "scenes": [
    {
      "name": "Sketchfab_Scene",
      "nodes": [
        0
      ]
    }
  ]
}
